<?xml version="1.0" encoding="UTF-8" ?>
<!DOCTYPE svg PUBLIC "-//W3C//DTD SVG 1.1//EN" "http://www.w3.org/Graphics/SVG/1.1/DTD/svg11.dtd">
<svg width="1024pt" height="1024pt" viewBox="0 0 1024 1024" version="1.1" xmlns="http://www.w3.org/2000/svg">
<g id="#ffffffff">
<path fill="#ffffff" opacity="1.00" d=" M 589.32 255.21 C 596.95 252.77 604.24 249.40 611.31 245.64 C 612.20 258.51 609.75 272.13 601.78 282.58 C 592.76 295.15 577.83 301.78 563.15 305.13 C 542.63 309.54 521.32 308.74 500.95 314.12 C 484.90 317.90 469.15 325.48 458.57 338.48 C 445.02 354.73 440.49 376.39 439.69 397.05 C 439.06 419.02 439.48 441.01 439.35 462.99 C 439.37 499.03 439.28 535.06 439.37 571.09 C 424.62 571.10 409.88 571.06 395.14 571.11 C 394.66 518.42 394.97 465.73 394.84 413.03 C 395.20 396.46 395.67 379.75 399.30 363.51 C 401.47 354.44 404.01 345.41 407.80 336.87 C 417.84 313.58 436.43 294.29 458.99 282.83 C 477.11 273.86 496.98 268.89 517.02 266.74 C 541.25 264.00 566.01 263.05 589.32 255.21 Z" />
<path fill="#ffffff" opacity="1.00" d=" M 310.19 267.61 C 356.79 267.56 403.38 267.82 449.98 267.47 C 430.73 277.27 413.67 291.79 401.77 309.89 C 401.09 310.79 400.47 312.14 399.08 311.82 C 369.46 311.81 339.85 311.86 310.24 311.80 C 310.22 297.07 310.29 282.34 310.19 267.61 Z" />
<path fill="#ffffff" opacity="1.00" d=" M 571.16 325.65 C 583.15 322.96 594.45 317.70 604.75 311.05 C 604.71 328.27 604.72 345.49 604.67 362.72 C 639.51 362.78 674.35 362.66 709.18 362.77 C 709.17 373.14 709.07 383.52 709.18 393.90 C 696.71 394.37 684.22 394.01 671.74 394.13 C 661.42 433.82 641.38 471.11 612.89 500.73 C 641.98 523.99 678.19 535.80 713.93 544.40 C 707.54 554.34 701.60 564.57 695.91 574.92 C 676.98 569.82 658.08 564.14 640.31 555.77 C 631.84 551.82 623.34 547.86 615.47 542.79 C 607.10 537.47 598.63 532.28 590.77 526.21 C 589.72 525.48 588.76 524.57 587.55 524.14 C 577.52 531.74 567.14 538.95 556.21 545.22 C 537.98 555.18 519.04 564.06 499.03 569.79 C 492.75 571.47 486.58 573.51 480.28 575.10 C 474.52 564.78 468.53 554.59 462.13 544.66 C 481.92 540.09 501.67 534.68 520.15 526.10 C 535.31 519.38 549.68 510.95 562.97 501.03 C 540.73 478.02 523.94 450.17 511.85 420.65 C 523.60 420.66 535.35 420.71 547.10 420.50 C 557.26 442.23 570.87 462.40 587.86 479.38 C 611.23 455.86 627.97 426.08 636.60 394.10 C 579.91 394.18 523.22 394.06 466.53 394.15 C 466.36 383.69 466.48 373.24 466.48 362.78 C 501.38 362.63 536.29 362.91 571.19 362.64 C 571.06 350.31 571.19 337.98 571.16 325.65 Z" />
<path fill="#ffffff" opacity="1.00" d=" M 238.72 645.37 C 271.93 645.35 305.14 645.36 338.35 645.35 C 338.35 651.59 338.33 657.84 338.29 664.09 C 325.33 664.06 312.37 664.10 299.41 664.07 C 299.50 700.61 299.38 737.15 299.49 773.69 C 292.12 773.68 284.75 773.70 277.38 773.73 C 277.42 737.17 277.44 700.61 277.39 664.05 C 264.51 663.95 251.64 663.95 238.76 664.10 C 238.72 657.85 238.69 651.61 238.72 645.37 Z" />
<path fill="#ffffff" opacity="1.00" d=" M 377.43 680.46 C 383.12 677.41 389.98 677.02 396.16 678.62 C 396.10 685.20 396.14 691.77 396.13 698.35 C 388.89 696.36 380.24 695.83 374.06 700.82 C 367.83 705.89 365.77 714.26 365.98 721.98 C 366.11 739.21 365.83 756.44 366.12 773.67 C 358.94 773.65 351.76 773.75 344.58 773.66 C 344.79 742.23 344.61 710.79 344.56 679.36 C 351.50 679.36 358.43 679.31 365.37 679.40 C 365.41 684.88 365.13 690.37 365.34 695.85 C 368.17 689.95 371.49 683.75 377.43 680.46 Z" />
<path fill="#ffffff" opacity="1.00" d=" M 415.75 688.83 C 425.06 679.36 439.18 676.84 451.96 677.72 C 462.08 678.25 472.61 681.83 479.18 689.92 C 484.71 695.81 485.97 704.22 486.13 711.99 C 486.24 732.51 486.10 753.03 486.22 773.55 C 479.16 773.66 472.10 773.71 465.04 773.67 C 465.02 768.97 465.16 764.27 465.16 759.58 C 461.54 764.10 457.82 768.88 452.43 771.39 C 439.75 777.49 422.90 776.75 412.39 766.74 C 403.96 758.99 401.90 745.83 406.30 735.47 C 408.69 729.82 413.65 725.68 419.14 723.17 C 427.51 719.13 436.93 718.39 446.07 717.72 C 452.28 717.35 458.48 716.81 464.70 716.60 C 464.72 711.32 465.00 705.65 461.90 701.06 C 457.71 694.55 449.02 692.98 441.89 694.36 C 435.18 695.44 428.62 700.32 427.89 707.48 C 421.14 707.46 414.39 707.52 407.64 707.33 C 408.13 700.47 410.67 693.63 415.75 688.83 M 440.53 732.83 C 435.86 733.57 430.76 734.88 427.65 738.73 C 423.36 744.23 425.29 753.27 431.41 756.61 C 437.08 759.65 443.97 759.60 450.07 757.95 C 456.18 756.33 461.18 751.46 463.42 745.61 C 465.38 741.00 464.46 735.89 464.62 731.04 C 456.58 731.52 448.54 731.95 440.53 732.83 Z" />
<path fill="#ffffff" opacity="1.00" d=" M 541.94 680.86 C 551.26 676.58 562.33 676.54 571.90 680.05 C 579.23 682.76 584.96 688.91 587.66 696.18 C 591.22 705.00 590.57 714.69 590.60 724.01 C 590.64 740.57 590.49 757.13 590.68 773.70 C 583.59 773.67 576.50 773.64 569.41 773.69 C 569.55 754.81 569.44 735.93 569.40 717.05 C 569.32 709.18 566.19 699.91 558.28 696.77 C 550.61 694.01 540.98 695.06 535.07 701.04 C 530.38 706.11 528.52 713.15 528.50 719.92 C 528.44 737.82 528.50 755.73 528.51 773.64 C 521.28 773.73 514.06 773.67 506.83 773.63 C 506.89 742.22 506.88 710.81 506.82 679.40 C 513.76 679.28 520.71 679.31 527.65 679.37 C 527.63 684.49 527.78 689.62 527.30 694.74 C 530.82 688.90 535.61 683.65 541.94 680.86 Z" />
<path fill="#ffffff" opacity="1.00" d=" M 614.28 690.32 C 620.63 682.21 631.09 678.63 641.04 677.75 C 651.32 676.99 662.25 678.21 671.18 683.74 C 679.24 688.64 684.54 697.75 684.65 707.21 C 678.01 707.13 671.37 707.14 664.74 707.14 C 664.02 703.47 662.82 699.59 659.73 697.23 C 653.97 692.56 645.84 692.61 638.96 694.13 C 633.60 695.22 628.65 700.12 629.64 705.92 C 629.95 710.16 633.56 713.19 637.41 714.35 C 650.71 718.76 665.71 719.10 677.55 727.28 C 688.37 734.79 689.05 751.33 681.59 761.44 C 675.02 771.00 663.01 774.64 651.96 775.40 C 639.99 775.98 627.02 774.31 617.34 766.67 C 610.80 761.69 607.26 753.66 606.55 745.61 C 613.45 745.52 620.35 745.60 627.25 745.44 C 628.25 750.95 631.54 756.26 637.07 758.10 C 644.37 760.46 653.01 760.82 659.87 756.98 C 665.35 754.05 667.27 745.81 662.93 741.15 C 659.43 737.99 654.62 737.07 650.21 735.89 C 638.98 733.36 626.83 731.90 617.43 724.65 C 606.93 716.80 606.35 700.19 614.28 690.32 Z" />
<path fill="#ffffff" opacity="1.00" d=" M 693.86 679.42 C 701.74 679.38 709.63 679.33 717.51 679.39 C 724.44 704.43 732.94 729.00 740.28 753.92 C 747.86 729.05 755.77 704.29 763.25 679.40 C 770.73 679.38 778.22 679.37 785.71 679.44 C 776.42 705.63 767.11 731.82 757.91 758.05 C 754.01 768.38 751.04 779.09 746.15 789.02 C 742.93 795.47 738.03 801.29 731.42 804.43 C 722.62 808.91 712.38 808.32 702.86 807.29 C 702.87 801.63 702.81 795.97 702.85 790.32 C 709.50 791.01 717.32 791.54 722.46 786.37 C 725.35 782.88 727.30 778.46 727.98 773.98 C 723.78 760.08 718.24 746.59 713.44 732.87 C 706.88 715.07 700.49 697.20 693.86 679.42 Z" />
</g>
<g id="#0a0b0aff">
<path fill="#0a0b0a" opacity="1.00" d=" M 328.37 128.58 C 352.89 127.69 377.44 128.00 401.96 127.96 C 488.30 127.88 574.65 127.96 660.98 127.94 C 687.40 128.14 713.91 128.64 740.08 132.53 C 757.77 135.22 775.41 139.18 791.87 146.37 C 807.18 152.95 821.40 162.02 833.89 173.05 C 847.53 185.40 858.62 200.47 866.93 216.86 C 875.83 235.04 880.94 254.87 883.56 274.88 C 889.79 317.94 888.27 361.58 888.47 404.96 C 888.50 487.31 888.47 569.65 888.49 652.00 C 888.60 682.98 888.39 714.06 884.73 744.86 C 882.50 765.61 877.86 786.27 869.18 805.32 C 854.45 836.97 828.40 863.37 796.46 877.65 C 775.35 887.45 752.12 891.39 729.11 893.49 C 700.48 895.98 671.72 895.91 643.01 895.92 C 571.31 895.96 499.64 895.93 427.95 895.98 C 386.95 895.60 345.89 896.83 304.93 894.28 C 283.31 892.65 261.49 890.10 240.92 882.91 C 207.78 871.51 179.01 847.87 161.53 817.47 C 150.95 799.67 145.17 779.45 141.69 759.15 C 134.21 712.16 135.82 664.41 135.58 617.01 C 135.64 530.02 135.49 443.03 135.67 356.04 C 136.22 327.91 137.03 299.67 141.48 271.84 C 144.15 254.63 148.04 237.40 155.45 221.55 C 169.80 189.65 195.70 163.02 227.54 148.40 C 258.97 133.74 294.09 129.87 328.37 128.58 M 589.32 255.21 C 566.01 263.05 541.25 264.00 517.02 266.74 C 496.98 268.89 477.11 273.86 458.99 282.83 C 436.43 294.29 417.84 313.58 407.80 336.87 C 404.01 345.41 401.47 354.44 399.30 363.51 C 395.67 379.75 395.20 396.46 394.84 413.03 C 394.97 465.73 394.66 518.42 395.14 571.11 C 409.88 571.06 424.62 571.10 439.37 571.09 C 439.28 535.06 439.37 499.03 439.35 462.99 C 439.48 441.01 439.06 419.02 439.69 397.05 C 440.49 376.39 445.02 354.73 458.57 338.48 C 469.15 325.48 484.90 317.90 500.95 314.12 C 521.32 308.74 542.63 309.54 563.15 305.13 C 577.83 301.78 592.76 295.15 601.78 282.58 C 609.75 272.13 612.20 258.51 611.31 245.64 C 604.24 249.40 596.95 252.77 589.32 255.21 M 310.19 267.61 C 310.29 282.34 310.22 297.07 310.24 311.80 C 339.85 311.86 369.46 311.81 399.08 311.82 C 400.47 312.14 401.09 310.79 401.77 309.89 C 413.67 291.79 430.73 277.27 449.98 267.47 C 403.38 267.82 356.79 267.56 310.19 267.61 M 571.16 325.65 C 571.19 337.98 571.06 350.31 571.19 362.64 C 536.29 362.91 501.38 362.63 466.48 362.78 C 466.48 373.24 466.36 383.69 466.53 394.15 C 523.22 394.06 579.91 394.18 636.60 394.10 C 627.97 426.08 611.23 455.86 587.86 479.38 C 570.87 462.40 557.26 442.23 547.10 420.50 C 535.35 420.71 523.60 420.66 511.85 420.65 C 523.94 450.17 540.73 478.02 562.97 501.03 C 549.68 510.95 535.31 519.38 520.15 526.10 C 501.67 534.68 481.92 540.09 462.13 544.66 C 468.53 554.59 474.52 564.78 480.28 575.10 C 486.58 573.51 492.75 571.47 499.03 569.79 C 519.04 564.06 537.98 555.18 556.21 545.22 C 567.14 538.95 577.52 531.74 587.55 524.14 C 588.76 524.57 589.72 525.48 590.77 526.21 C 598.63 532.28 607.10 537.47 615.47 542.79 C 623.34 547.86 631.84 551.82 640.31 555.77 C 658.08 564.14 676.98 569.82 695.91 574.92 C 701.60 564.57 707.54 554.34 713.93 544.40 C 678.19 535.80 641.98 523.99 612.89 500.73 C 641.38 471.11 661.42 433.82 671.74 394.13 C 684.22 394.01 696.71 394.37 709.18 393.90 C 709.07 383.52 709.17 373.14 709.18 362.77 C 674.35 362.66 639.51 362.78 604.67 362.72 C 604.72 345.49 604.71 328.27 604.75 311.05 C 594.45 317.70 583.15 322.96 571.16 325.65 M 238.72 645.37 C 238.69 651.61 238.72 657.85 238.76 664.10 C 251.64 663.95 264.51 663.95 277.39 664.05 C 277.44 700.61 277.42 737.17 277.38 773.73 C 284.75 773.70 292.12 773.68 299.49 773.69 C 299.38 737.15 299.50 700.61 299.41 664.07 C 312.37 664.10 325.33 664.06 338.29 664.09 C 338.33 657.84 338.35 651.59 338.35 645.35 C 305.14 645.36 271.93 645.35 238.72 645.37 M 377.43 680.46 C 371.49 683.75 368.17 689.95 365.34 695.85 C 365.13 690.37 365.41 684.88 365.37 679.40 C 358.43 679.31 351.50 679.36 344.56 679.36 C 344.61 710.79 344.79 742.23 344.58 773.66 C 351.76 773.75 358.94 773.65 366.12 773.67 C 365.83 756.44 366.11 739.21 365.98 721.98 C 365.77 714.26 367.83 705.89 374.06 700.82 C 380.24 695.83 388.89 696.36 396.13 698.35 C 396.14 691.77 396.10 685.20 396.16 678.62 C 389.98 677.02 383.12 677.41 377.43 680.46 M 415.75 688.83 C 410.67 693.63 408.13 700.47 407.64 707.33 C 414.39 707.52 421.14 707.46 427.89 707.48 C 428.62 700.32 435.18 695.44 441.89 694.36 C 449.02 692.98 457.71 694.55 461.90 701.06 C 465.00 705.65 464.72 711.32 464.70 716.60 C 458.48 716.81 452.28 717.35 446.07 717.72 C 436.93 718.39 427.51 719.13 419.14 723.17 C 413.65 725.68 408.69 729.82 406.30 735.47 C 401.90 745.83 403.96 758.99 412.39 766.74 C 422.90 776.75 439.75 777.49 452.43 771.39 C 457.82 768.88 461.54 764.10 465.16 759.58 C 465.16 764.27 465.02 768.97 465.04 773.67 C 472.10 773.71 479.16 773.66 486.22 773.55 C 486.10 753.03 486.24 732.51 486.13 711.99 C 485.97 704.22 484.71 695.81 479.18 689.92 C 472.61 681.83 462.08 678.25 451.96 677.72 C 439.18 676.84 425.06 679.36 415.75 688.83 M 541.94 680.86 C 535.61 683.65 530.82 688.90 527.30 694.74 C 527.78 689.62 527.63 684.49 527.65 679.37 C 520.71 679.31 513.76 679.28 506.82 679.40 C 506.88 710.81 506.89 742.22 506.83 773.63 C 514.06 773.67 521.28 773.73 528.51 773.64 C 528.50 755.73 528.44 737.82 528.50 719.92 C 528.52 713.15 530.38 706.11 535.07 701.04 C 540.98 695.06 550.61 694.01 558.28 696.77 C 566.19 699.91 569.32 709.18 569.40 717.05 C 569.44 735.93 569.55 754.81 569.41 773.69 C 576.50 773.64 583.59 773.67 590.68 773.70 C 590.49 757.13 590.64 740.57 590.60 724.01 C 590.57 714.69 591.22 705.00 587.66 696.18 C 584.96 688.91 579.23 682.76 571.90 680.05 C 562.33 676.54 551.26 676.58 541.94 680.86 M 614.28 690.32 C 606.35 700.19 606.93 716.80 617.43 724.65 C 626.83 731.90 638.98 733.36 650.21 735.89 C 654.62 737.07 659.43 737.99 662.93 741.15 C 667.27 745.81 665.35 754.05 659.87 756.98 C 653.01 760.82 644.37 760.46 637.07 758.10 C 631.54 756.26 628.25 750.95 627.25 745.44 C 620.35 745.60 613.45 745.52 606.55 745.61 C 607.26 753.66 610.80 761.69 617.34 766.67 C 627.02 774.31 639.99 775.98 651.96 775.40 C 663.01 774.64 675.02 771.00 681.59 761.44 C 689.05 751.33 688.37 734.79 677.55 727.28 C 665.71 719.10 650.71 718.76 637.41 714.35 C 633.56 713.19 629.95 710.16 629.64 705.92 C 628.65 700.12 633.60 695.22 638.96 694.13 C 645.84 692.61 653.97 692.56 659.73 697.23 C 662.82 699.59 664.02 703.47 664.74 707.14 C 671.37 707.14 678.01 707.13 684.65 707.21 C 684.54 697.75 679.24 688.64 671.18 683.74 C 662.25 678.21 651.32 676.99 641.04 677.75 C 631.09 678.63 620.63 682.21 614.28 690.32 M 693.86 679.42 C 700.49 697.20 706.88 715.07 713.44 732.87 C 718.24 746.59 723.78 760.08 727.98 773.98 C 727.30 778.46 725.35 782.88 722.46 786.37 C 717.32 791.54 709.50 791.01 702.85 790.32 C 702.81 795.97 702.87 801.63 702.86 807.29 C 712.38 808.32 722.62 808.91 731.42 804.43 C 738.03 801.29 742.93 795.47 746.15 789.02 C 751.04 779.09 754.01 768.38 757.91 758.05 C 767.11 731.82 776.42 705.63 785.71 679.44 C 778.22 679.37 770.73 679.38 763.25 679.40 C 755.77 704.29 747.86 729.05 740.28 753.92 C 732.94 729.00 724.44 704.43 717.51 679.39 C 709.63 679.33 701.74 679.38 693.86 679.42 Z" />
<path fill="#0a0b0a" opacity="1.00" d=" M 440.53 732.83 C 448.54 731.95 456.58 731.52 464.62 731.04 C 464.46 735.89 465.38 741.00 463.42 745.61 C 461.18 751.46 456.18 756.33 450.07 757.95 C 443.97 759.60 437.08 759.65 431.41 756.61 C 425.29 753.27 423.36 744.23 427.65 738.73 C 430.76 734.88 435.86 733.57 440.53 732.83 Z" />
</g>
</svg>
